<?xml version="1.0" encoding="UTF-8" standalone="no"?>
<svg
   xmlns:dc="http://purl.org/dc/elements/1.1/"
   xmlns:cc="http://creativecommons.org/ns#"
   xmlns:rdf="http://www.w3.org/1999/02/22-rdf-syntax-ns#"
   xmlns:svg="http://www.w3.org/2000/svg"
   xmlns="http://www.w3.org/2000/svg"
   xmlns:sodipodi="http://sodipodi.sourceforge.net/DTD/sodipodi-0.dtd"
   xmlns:inkscape="http://www.inkscape.org/namespaces/inkscape"
   width="30"
   height="24"
   viewBox="0 0 30 24"
   fill="none"
   version="1.1"
   id="svg4"
   sodipodi:docname="message.svg"
   inkscape:version="0.92.5 (2060ec1f9f, 2020-04-08)">
  <metadata
     id="metadata10">
    <rdf:RDF>
      <cc:Work
         rdf:about="">
        <dc:format>image/svg+xml</dc:format>
        <dc:type
           rdf:resource="http://purl.org/dc/dcmitype/StillImage" />
      </cc:Work>
    </rdf:RDF>
  </metadata>
  <defs
     id="defs8" />
  <sodipodi:namedview
     pagecolor="#ffffff"
     bordercolor="#666666"
     borderopacity="1"
     objecttolerance="10"
     gridtolerance="10"
     guidetolerance="10"
     inkscape:pageopacity="0"
     inkscape:pageshadow="2"
     inkscape:window-width="691"
     inkscape:window-height="480"
     id="namedview6"
     showgrid="false"
     inkscape:zoom="9.8333333"
     inkscape:cx="15"
     inkscape:cy="12"
     inkscape:window-x="0"
     inkscape:window-y="0"
     inkscape:window-maximized="0"
     inkscape:current-layer="svg4" />
  <path
     d="M27.1875 0.746582H2.8125C1.25918 0.746582 0 2.00576 0 3.55908V20.4341C0 21.9874 1.25918 23.2466 2.8125 23.2466H27.1875C28.7408 23.2466 30 21.9874 30 20.4341V3.55908C30 2.00576 28.7408 0.746582 27.1875 0.746582ZM27.1875 3.55908V5.95C25.8737 7.01986 23.7792 8.68346 19.3015 12.1896C18.3148 12.9658 16.3601 14.8306 15 14.8088C13.6402 14.8308 11.6848 12.9655 10.6985 12.1896C6.22149 8.68399 4.12646 7.02004 2.8125 5.95V3.55908H27.1875ZM2.8125 20.4341V9.55896C4.15512 10.6284 6.05912 12.129 8.96121 14.4015C10.2419 15.4096 12.4847 17.6351 15 17.6215C17.5029 17.6351 19.7173 15.4419 21.0383 14.402C23.9403 12.1295 25.8448 10.6285 27.1875 9.55902V20.4341H2.8125Z"
     fill="#C7C7C8"
     id="path2"
     style="fill:#000000" />
</svg>
